<?xml version="1.0" encoding="UTF-8" standalone="no"?>
<!DOCTYPE svg PUBLIC "-//W3C//DTD SVG 1.1//EN" "http://www.w3.org/Graphics/SVG/1.1/DTD/svg11.dtd">
<svg width="100%" height="100%" viewBox="0 0 1024 1024" version="1.1" xmlns="http://www.w3.org/2000/svg" xmlns:xlink="http://www.w3.org/1999/xlink" xml:space="preserve" xmlns:serif="http://www.serif.com/" style="fill-rule:evenodd;clip-rule:evenodd;stroke-linecap:round;stroke-linejoin:round;stroke-miterlimit:1.5;">
    <g id="Logo" transform="matrix(1.909145,0,0,1.909145,23.258952,-8.663317)">
        <g id="Logo1" serif:id="Logo" transform="matrix(0.873394,0,0,0.873394,32.411009,16.918349)">
            <g transform="matrix(0.720918,0,0,0.720918,-299.054914,-183.357065)">
                <g transform="matrix(1.218712,0,0,1.327118,-31.990703,-200.584948)">
                    <path d="M691.706,785.952C691.029,786.995 690.276,788.163 689.448,789.457C686.046,794.772 682.007,799.449 677.33,803.489C663.086,816.244 649.321,824.961 636.033,829.638C622.746,834.315 607.174,836.653 589.316,836.653C537.868,836.653 503.215,818.158 485.357,781.166C475.365,760.757 470.369,730.675 470.369,690.92L470.369,481.408L563.486,552.713L563.486,690.92C563.486,710.691 565.824,725.573 570.501,735.565C578.792,753.21 595.056,762.033 619.292,762.033C650.33,762.033 671.59,749.49 683.07,724.404C687.945,713.261 690.823,699.196 691.706,682.209L691.706,785.952Z" style="fill:rgb(230,210,181);"/>
                </g>
                <g transform="matrix(1.200176,0,0,1.021693,-162.342415,-6.705952)">
                    <path d="M811.495,428.448L967.312,309.13L967.312,897L811,897L811,648.629C811.33,642.278 811.495,635.685 811.495,628.851L811.495,428.448Z" style="fill:rgb(31,111,92);"/>
                </g>
            </g>
            <g transform="matrix(1.446844,0,0,1.096309,-76.622985,-10.551756)">
                <path d="M167,345.5L167,186.334L280.371,186.334C283.264,186.334 285.61,189.429 285.61,193.247C285.61,223.835 285.61,345.5 285.61,345.5C285.61,372.268 259.036,394 226.305,394C193.574,394 167,372.268 167,345.5Z" style="fill:rgb(250,250,247);"/>
            </g>
            <g transform="matrix(2.021997,0,0,2.021997,-1338.601367,-396.653991)">
                <path d="M812.135,338L813.899,338C813.899,338 816,359.601 816,362C816,372.218 807.868,380.953 796.423,384.412C799.92,378.915 800.806,367.464 795.943,363.948L785.302,356.172C786.024,355.769 786.75,355.358 787.478,354.941C797.626,349.125 806.335,343.056 812.135,338Z" style="fill:rgb(0,4,53);stroke:rgb(250,250,247);stroke-width:2.22px;"/>
                <g transform="matrix(1,0,0,1,-1,-1)">
                    <path d="M780.783,353.139L796.943,364.948C801.806,368.464 800.92,379.915 797.423,385.412C794.031,386.438 790.349,387 786.5,387C769.667,387 756,376.246 756,363C756,360.601 758.101,339 758.101,339L760.874,339C765.748,343.249 772.674,348.212 780.783,353.139Z" style="fill:rgb(0,4,53);stroke:rgb(250,250,247);stroke-width:2.22px;"/>
                </g>
                <path d="M803.271,329.544C812.035,326.213 818.269,325.205 819.506,327.365C820.58,329.239 817.693,333.155 812.135,338C807.262,342.249 800.335,347.212 792.226,352.139C790.684,353.076 789.099,354.012 787.478,354.941C786.985,355.223 786.494,355.502 786.005,355.778C785.515,355.502 785.024,355.223 784.531,354.941C782.91,354.012 781.325,353.076 779.783,352.139L771.358,345.982C773.945,344.34 776.677,342.69 779.522,341.059C781.384,339.992 783.229,338.971 785.045,338C791.686,334.45 797.946,331.568 803.271,329.544Z" style="fill:rgb(0,4,53);stroke:rgb(250,250,247);stroke-width:2.22px;"/>
                <g transform="matrix(0.917537,0.397649,-0.397649,0.917537,144.733958,-267.517671)">
                    <ellipse cx="824.694" cy="282.5" rx="10.694" ry="5.5" style="fill:rgb(0,4,53);stroke:rgb(250,250,247);stroke-width:2.22px;"/>
                </g>
                <g transform="matrix(1,0,0,1,0,2)">
                    <path d="M788.768,324.66C786.499,326.264 783.72,327.502 780.622,328.238L766.495,327.077L767.654,312.97L783.293,314.255C784.961,314.392 786.505,315.186 787.588,316.462C788.67,317.738 789.201,319.391 789.064,321.059L788.768,324.66Z" style="fill:rgb(0,4,53);stroke:rgb(250,250,247);stroke-width:2.22px;"/>
                </g>
                <path d="M794.973,314.771C798.188,315.747 800.809,317.641 802.345,320.397C803.868,323.131 804.108,326.324 803.271,329.544C797.946,331.568 791.686,334.45 785.045,338C783.229,338.971 781.384,339.992 779.522,341.059C776.677,342.69 773.945,344.34 771.358,345.982L759.874,338C754.316,333.155 751.798,329.407 752.503,327.365C753.373,324.847 755.546,325.472 761.663,327.213C762.405,327.424 770.397,328.59 774,328.238C784.228,327.238 791.41,322.692 794.973,314.771Z" style="fill:rgb(0,4,53);stroke:rgb(250,250,247);stroke-width:2.22px;"/>
            </g>
        </g>
    </g>
</svg>
